<svg xmlns="http://www.w3.org/2000/svg" width="30" height="30" viewBox="0 0 30 30">
  <g id="그룹_15" data-name="그룹 15" transform="translate(-511 -791)">
    <circle id="타원_3" data-name="타원 3" cx="13" cy="13" r="13" transform="translate(513 793)" fill="#266bf7"/>
    <path id="패스_5" data-name="패스 5" d="M18,24a6,6,0,1,0-6-6A6,6,0,0,0,18,24Z" transform="translate(508 788)" fill="#fff"/>
    <path id="패스_6" data-name="패스 6" d="M33,18A15,15,0,1,1,18,3,15,15,0,0,1,33,18Zm-3,0A12,12,0,1,1,18,6,12,12,0,0,1,30,18Z" transform="translate(508 788)" fill="#266bf7" fill-rule="evenodd"/>
  </g>
</svg>
