<svg xmlns="http://www.w3.org/2000/svg" width="12" height="12" viewBox="0 0 12 12">
  <path id="패스_1" data-name="패스 1" d="M7.23,1A.374.374,0,0,0,7.106.721L6.485.12a.4.4,0,0,0-.572,0L.124,5.723a.37.37,0,0,0,0,.553l5.789,5.6a.4.4,0,0,0,.572,0l.621-.6a.37.37,0,0,0,0-.553L2.223,6,7.106,1.274A.374.374,0,0,0,7.23,1ZM12,1a.374.374,0,0,0-.124-.277l-.621-.6a.4.4,0,0,0-.572,0l-5.789,5.6a.37.37,0,0,0,0,.553l5.789,5.6a.4.4,0,0,0,.572,0l.621-.6a.37.37,0,0,0,0-.553L6.994,6l4.882-4.726A.374.374,0,0,0,12,1Z" transform="translate(12 12) rotate(180)"/>
</svg>
