<svg xmlns="http://www.w3.org/2000/svg" width="18.859" height="18.858" viewBox="0 0 18.859 18.858">
  <path id="instagram" d="M12.429,3c-2.561,0-2.881.011-3.887.057A6.939,6.939,0,0,0,6.253,3.5,4.819,4.819,0,0,0,3.495,6.253a6.952,6.952,0,0,0-.439,2.289C3.011,9.547,3,9.868,3,12.429s.011,2.881.057,3.887A6.939,6.939,0,0,0,3.5,18.6a4.817,4.817,0,0,0,2.758,2.758,6.952,6.952,0,0,0,2.289.439c1.006.045,1.327.057,3.887.057s2.881-.011,3.887-.057a6.939,6.939,0,0,0,2.289-.439A4.817,4.817,0,0,0,21.363,18.6a6.952,6.952,0,0,0,.439-2.289c.045-1.006.057-1.327.057-3.887s-.011-2.881-.057-3.887a6.939,6.939,0,0,0-.439-2.289,4.817,4.817,0,0,0-2.758-2.758,6.952,6.952,0,0,0-2.289-.439C15.31,3.011,14.99,3,12.429,3m0,1.7c2.517,0,2.815.009,3.809.055a5.238,5.238,0,0,1,1.752.324,3.121,3.121,0,0,1,1.79,1.79A5.233,5.233,0,0,1,20.1,8.618c.045,1,.055,1.292.055,3.81s-.009,2.815-.055,3.809a5.272,5.272,0,0,1-.324,1.752,3.121,3.121,0,0,1-1.79,1.79,5.233,5.233,0,0,1-1.751.324c-.994.045-1.292.055-3.81.055S9.612,20.149,8.62,20.1a5.271,5.271,0,0,1-1.752-.324,3.121,3.121,0,0,1-1.79-1.79,5.2,5.2,0,0,1-.324-1.751c-.045-1-.055-1.292-.055-3.81s.009-2.815.055-3.809a5.238,5.238,0,0,1,.324-1.752,3.121,3.121,0,0,1,1.79-1.79,5.2,5.2,0,0,1,1.751-.324c1-.045,1.292-.055,3.81-.055m0,10.873a3.143,3.143,0,1,1,3.143-3.143,3.142,3.142,0,0,1-3.143,3.143m0-7.984a4.842,4.842,0,1,0,4.842,4.842,4.842,4.842,0,0,0-4.842-4.842M18.593,7.4a1.131,1.131,0,1,1-1.131-1.131A1.131,1.131,0,0,1,18.593,7.4" transform="translate(-3 -3)" fill="#222" fill-rule="evenodd"/>
</svg>
