<svg xmlns="http://www.w3.org/2000/svg" width="17.632" height="19.537" viewBox="0 0 17.632 19.537">
  <path id="discord" d="M17.264,0a2.142,2.142,0,0,1,2.122,2.015V19.537l-2.179-1.851L16.01,16.6,14.7,15.459l.545,1.8H3.823a2.02,2.02,0,0,1-2.068-2.016V2.019A2.061,2.061,0,0,1,3.826,0H17.258Zm-4.98,4.626h-.024l-.164.163A6.563,6.563,0,0,1,14.6,6.04a8.862,8.862,0,0,0-3.048-.926,8.358,8.358,0,0,0-2.015,0H9.373a7.253,7.253,0,0,0-2.287.6c-.38.165-.6.274-.6.274A5.806,5.806,0,0,1,9.1,4.735l-.11-.11A4.89,4.89,0,0,0,6.16,5.659a12.739,12.739,0,0,0-1.47,5.715,3.552,3.552,0,0,0,3.047,1.47s.326-.434.656-.816a3.221,3.221,0,0,1-1.742-1.143,2.718,2.718,0,0,1,.273.163h.049a.064.064,0,0,1,.049.024v0a.062.062,0,0,0,.049.024c.269.111.537.22.757.326a6.659,6.659,0,0,0,1.465.436,8.353,8.353,0,0,0,2.613,0,7.579,7.579,0,0,0,1.465-.435,11.762,11.762,0,0,0,1.137-.6,3.235,3.235,0,0,1-1.8,1.143c.269.379.647.814.647.814a4.249,4.249,0,0,0,3.15-1.405,12.712,12.712,0,0,0-1.478-5.715,4.9,4.9,0,0,0-2.8-1.026l.046-.016Zm.137,3.593A1.09,1.09,0,1,1,11.387,9.31a1.062,1.062,0,0,1,1.034-1.091Zm-3.7,0A1.09,1.09,0,1,1,7.685,9.31,1.06,1.06,0,0,1,8.722,8.219Z" transform="translate(-1.755)" fill="#222"/>
</svg>
