<svg xmlns="http://www.w3.org/2000/svg" width="29.115" height="16.987" viewBox="0 0 29.115 16.987">
  <g id="arrow-left" transform="translate(-4.498 -10.123)">
    <path id="패스_1" data-name="패스 1" d="M13.85,10.48a1.213,1.213,0,0,1,0,1.718L7.429,18.617l6.422,6.42a1.215,1.215,0,1,1-1.718,1.718L4.855,19.476a1.213,1.213,0,0,1,0-1.718l7.278-7.278a1.213,1.213,0,0,1,1.718,0Z" fill="#333" fill-rule="evenodd"/>
    <path id="패스_2" data-name="패스 2" d="M5.625,18.088a1.213,1.213,0,0,1,1.213-1.213H32.313a1.213,1.213,0,1,1,0,2.426H6.838A1.213,1.213,0,0,1,5.625,18.088Z" transform="translate(0.088 0.529)" fill="#333" fill-rule="evenodd"/>
  </g>
</svg>
