<?xml version="1.0" standalone="no"?>
<svg xmlns:xlink="http://www.w3.org/1999/xlink" id="wave" style="transform:rotate(0deg); transition: 0.3s" viewBox="0 0 1440 320" version="1.1" xmlns="http://www.w3.org/2000/svg"><defs><linearGradient id="sw-gradient-0" x1="0" x2="0" y1="1" y2="0"><stop stop-color="rgba(243, 106, 62, 1)" offset="0%"/><stop stop-color="rgba(255, 179, 11, 1)" offset="100%"/></linearGradient></defs><path style="transform:translate(0, 0px); opacity:1" fill="url(#sw-gradient-0)" d="M0,160L60,165.3C120,171,240,181,360,202.7C480,224,600,256,720,224C840,192,960,96,1080,96C1200,96,1320,192,1440,218.7C1560,245,1680,203,1800,165.3C1920,128,2040,96,2160,80C2280,64,2400,64,2520,58.7C2640,53,2760,43,2880,80C3000,117,3120,203,3240,213.3C3360,224,3480,160,3600,133.3C3720,107,3840,117,3960,106.7C4080,96,4200,64,4320,85.3C4440,107,4560,181,4680,197.3C4800,213,4920,171,5040,138.7C5160,107,5280,85,5400,74.7C5520,64,5640,64,5760,58.7C5880,53,6000,43,6120,37.3C6240,32,6360,32,6480,37.3C6600,43,6720,53,6840,85.3C6960,117,7080,171,7200,186.7C7320,203,7440,181,7560,165.3C7680,149,7800,139,7920,133.3C8040,128,8160,128,8280,117.3C8400,107,8520,85,8580,74.7L8640,64L8640,320L8580,320C8520,320,8400,320,8280,320C8160,320,8040,320,7920,320C7800,320,7680,320,7560,320C7440,320,7320,320,7200,320C7080,320,6960,320,6840,320C6720,320,6600,320,6480,320C6360,320,6240,320,6120,320C6000,320,5880,320,5760,320C5640,320,5520,320,5400,320C5280,320,5160,320,5040,320C4920,320,4800,320,4680,320C4560,320,4440,320,4320,320C4200,320,4080,320,3960,320C3840,320,3720,320,3600,320C3480,320,3360,320,3240,320C3120,320,3000,320,2880,320C2760,320,2640,320,2520,320C2400,320,2280,320,2160,320C2040,320,1920,320,1800,320C1680,320,1560,320,1440,320C1320,320,1200,320,1080,320C960,320,840,320,720,320C600,320,480,320,360,320C240,320,120,320,60,320L0,320Z"/><defs><linearGradient id="sw-gradient-1" x1="0" x2="0" y1="1" y2="0"><stop stop-color="rgba(243, 106, 62, 1)" offset="0%"/><stop stop-color="rgba(255, 179, 11, 1)" offset="100%"/></linearGradient></defs><path style="transform:translate(0, 50px); opacity:0.9" fill="url(#sw-gradient-1)" d="M0,160L60,160C120,160,240,160,360,160C480,160,600,160,720,133.3C840,107,960,53,1080,37.3C1200,21,1320,43,1440,85.3C1560,128,1680,192,1800,192C1920,192,2040,128,2160,85.3C2280,43,2400,21,2520,26.7C2640,32,2760,64,2880,74.7C3000,85,3120,75,3240,80C3360,85,3480,107,3600,96C3720,85,3840,43,3960,32C4080,21,4200,43,4320,58.7C4440,75,4560,85,4680,106.7C4800,128,4920,160,5040,176C5160,192,5280,192,5400,208C5520,224,5640,256,5760,261.3C5880,267,6000,245,6120,229.3C6240,213,6360,203,6480,202.7C6600,203,6720,213,6840,197.3C6960,181,7080,139,7200,112C7320,85,7440,75,7560,58.7C7680,43,7800,21,7920,37.3C8040,53,8160,107,8280,133.3C8400,160,8520,160,8580,160L8640,160L8640,320L8580,320C8520,320,8400,320,8280,320C8160,320,8040,320,7920,320C7800,320,7680,320,7560,320C7440,320,7320,320,7200,320C7080,320,6960,320,6840,320C6720,320,6600,320,6480,320C6360,320,6240,320,6120,320C6000,320,5880,320,5760,320C5640,320,5520,320,5400,320C5280,320,5160,320,5040,320C4920,320,4800,320,4680,320C4560,320,4440,320,4320,320C4200,320,4080,320,3960,320C3840,320,3720,320,3600,320C3480,320,3360,320,3240,320C3120,320,3000,320,2880,320C2760,320,2640,320,2520,320C2400,320,2280,320,2160,320C2040,320,1920,320,1800,320C1680,320,1560,320,1440,320C1320,320,1200,320,1080,320C960,320,840,320,720,320C600,320,480,320,360,320C240,320,120,320,60,320L0,320Z"/></svg>