<svg xmlns="http://www.w3.org/2000/svg" width="27.168" height="28.068" viewBox="0 0 27.168 28.068">
  <path id="angle-double-left" d="M16.734,31.5a.889.889,0,0,1-.281.647l-1.406,1.406a.885.885,0,0,1-1.294,0L.647,20.447a.885.885,0,0,1,0-1.294L13.753,6.047a.885.885,0,0,1,1.294,0l1.406,1.406a.885.885,0,0,1,0,1.294L5.4,19.8,16.453,30.853a.889.889,0,0,1,.281.647Zm10.8,0a.889.889,0,0,1-.281.647l-1.406,1.406a.885.885,0,0,1-1.294,0L11.447,20.447a.885.885,0,0,1,0-1.294L24.553,6.047a.885.885,0,0,1,1.294,0l1.406,1.406a.885.885,0,0,1,0,1.294L16.2,19.8,27.253,30.853a.889.889,0,0,1,.281.647Z" transform="translate(-0.366 -5.766)" fill="#bcbcbc"/>
</svg>
