<svg xmlns="http://www.w3.org/2000/svg" width="33" height="33" viewBox="0 0 33 33">
  <g id="그룹_16" data-name="그룹 16" transform="translate(-472 -691)">
    <rect id="사각형_17" data-name="사각형 17" width="29" height="29" transform="translate(474 693)" fill="#266bf7"/>
    <path id="패스_7" data-name="패스 7" d="M15.364,24.471,9,18.1l2.121-2.121,4.244,4.242,8.484-8.486,2.123,2.123-10.607,10.6Z" transform="translate(470.5 689.5)" fill="#fff"/>
    <path id="패스_8" data-name="패스 8" d="M1.5,7.5a6,6,0,0,1,6-6h21a6,6,0,0,1,6,6v21a6,6,0,0,1-6,6H7.5a6,6,0,0,1-6-6Zm6-3h21a3,3,0,0,1,3,3v21a3,3,0,0,1-3,3H7.5a3,3,0,0,1-3-3V7.5a3,3,0,0,1,3-3Z" transform="translate(470.5 689.5)" fill="#266bf7" fill-rule="evenodd"/>
  </g>
</svg>
