<svg xmlns="http://www.w3.org/2000/svg" width="16.368" height="28.068" viewBox="0 0 16.368 28.068">
  <g id="angle-right" transform="translate(16.734 -5.766) rotate(180)">
    <path id="패스_6" data-name="패스 6" d="M16.734-8.1a.889.889,0,0,0-.281-.647L5.4-19.8,16.453-30.853a.889.889,0,0,0,.281-.647.889.889,0,0,0-.281-.647l-1.406-1.406a.889.889,0,0,0-.647-.281.889.889,0,0,0-.647.281L.647-20.447a.889.889,0,0,0-.281.647.889.889,0,0,0,.281.647L13.753-6.047a.889.889,0,0,0,.647.281.889.889,0,0,0,.647-.281l1.406-1.406a.889.889,0,0,0,.281-.647Z" fill="#bcbcbc"/>
  </g>
</svg>
