<svg xmlns="http://www.w3.org/2000/svg" width="18.857" height="18.391" viewBox="0 0 18.857 18.391">
  <path id="github" d="M12.429,3A9.429,9.429,0,0,0,9.447,21.375c.471.082.647-.2.647-.449,0-.223-.012-.965-.012-1.756-2.368.437-2.981-.577-3.17-1.108a3.435,3.435,0,0,0-.966-1.332c-.33-.176-.8-.613-.012-.624a1.887,1.887,0,0,1,1.45.966,2.015,2.015,0,0,0,2.746.778,1.983,1.983,0,0,1,.6-1.261c-2.1-.236-4.29-1.049-4.29-4.656A3.671,3.671,0,0,1,7.408,9.4,3.388,3.388,0,0,1,7.5,6.9s.789-.247,2.593.967a8.885,8.885,0,0,1,4.714,0C16.613,6.641,17.4,6.9,17.4,6.9A3.388,3.388,0,0,1,17.5,9.4a3.648,3.648,0,0,1,.966,2.533c0,3.619-2.2,4.42-4.3,4.656a2.233,2.233,0,0,1,.637,1.744c0,1.261-.012,2.274-.012,2.593,0,.247.177.541.649.447A9.433,9.433,0,0,0,12.429,3Z" transform="translate(-3 -3)" fill-rule="evenodd"/>
</svg>
