<svg xmlns="http://www.w3.org/2000/svg" width="26.018" height="6.561" viewBox="0 0 26.018 6.561">
  <path id="more" d="M3.242,13.969a3.122,3.122,0,0,1,2.289.954,3.315,3.315,0,0,1,0,4.654,3.122,3.122,0,0,1-2.289.954,3.122,3.122,0,0,1-2.289-.954,3.316,3.316,0,0,1,0-4.654,3.121,3.121,0,0,1,2.289-.954Zm19.533,0a3.122,3.122,0,0,1,2.289.954,3.315,3.315,0,0,1,0,4.654,3.224,3.224,0,0,1-4.579,0,3.316,3.316,0,0,1,0-4.654,3.12,3.12,0,0,1,2.289-.954Zm-9.766,0a3.122,3.122,0,0,1,2.289.954,3.315,3.315,0,0,1,0,4.654,3.224,3.224,0,0,1-4.579,0,3.316,3.316,0,0,1,0-4.654,3.12,3.12,0,0,1,2.289-.954Z" transform="translate(0 -13.969)"/>
</svg>
