<svg xmlns="http://www.w3.org/2000/svg" xmlns:xlink="http://www.w3.org/1999/xlink" width="32.786" height="32.788" viewBox="0 0 32.786 32.788">
  <defs>
    <filter id="sharew" x="0" y="0" width="32.786" height="32.788" filterUnits="userSpaceOnUse">
      <feOffset dy="3" input="SourceAlpha"/>
      <feGaussianBlur stdDeviation="3" result="blur"/>
      <feFlood flood-opacity="0.161"/>
      <feComposite operator="in" in2="blur"/>
      <feComposite in="SourceGraphic"/>
    </filter>
  </defs>
  <g transform="matrix(1, 0, 0, 1, 0, 0)" filter="url(#sharew)">
    <path id="sharew-2" data-name="sharew" d="M16.017,16.09a2.772,2.772,0,1,1-.739,1.477l-4.5-2.258a2.772,2.772,0,1,1,0-3.836l4.5-2.258a2.772,2.772,0,1,1,.739,1.477L11.51,12.947a2.793,2.793,0,0,1,0,.889l4.507,2.253Zm2-6.395a.924.924,0,1,0-.924-.924A.924.924,0,0,0,18.014,9.7Zm0,9.241a.924.924,0,1,0-.924-.924A.924.924,0,0,0,18.014,18.937ZM8.773,14.316a.924.924,0,1,0-.924-.924A.924.924,0,0,0,8.773,14.316Z" transform="translate(3 0)" fill="#fff" fill-rule="evenodd"/>
  </g>
</svg>
