<svg xmlns="http://www.w3.org/2000/svg" width="27.168" height="28.068" viewBox="0 0 27.168 28.068">
  <path id="패스_7" data-name="패스 7" d="M11.166-31.5a.889.889,0,0,1,.281-.647l1.406-1.406a.889.889,0,0,1,.647-.281.889.889,0,0,1,.647.281L27.253-20.447a.889.889,0,0,1,.281.647.889.889,0,0,1-.281.647L14.147-6.047a.889.889,0,0,1-.647.281.889.889,0,0,1-.647-.281L11.447-7.453a.889.889,0,0,1-.281-.647.889.889,0,0,1,.281-.647L22.5-19.8,11.447-30.853a.889.889,0,0,1-.281-.647Zm-10.8,0a.889.889,0,0,1,.281-.647l1.406-1.406a.889.889,0,0,1,.647-.281.889.889,0,0,1,.647.281L16.453-20.447a.889.889,0,0,1,.281.647.889.889,0,0,1-.281.647L3.347-6.047a.889.889,0,0,1-.647.281.889.889,0,0,1-.647-.281L.647-7.453A.889.889,0,0,1,.366-8.1a.889.889,0,0,1,.281-.647L11.7-19.8.647-30.853A.889.889,0,0,1,.366-31.5Z" transform="translate(-0.366 33.834)" fill="#bcbcbc"/>
</svg>
